# xmcd CD database file generated by OrangeCD 5.0
#
# Track frame offsets:
#	150
#	15605
#	27632
#	37570
#	49982
#	62722
#	77882
#	98117
#	118145
#	136432
#	148995
#	161602
#	197527
#	228340
#
# Disc length: 3175 seconds
#
# Revision: 0
# Processed by: cddbd v1.4PL0 Copyright (c) Steve Scherf et al.
# Submitted via: OrangeCD 5.0
#
DISCID=bf0c650e
DTITLE=Michael de Jong - 'Who's Fooling Who'
DYEAR=1996
DGENRE=Blues
TTITLE0=Rollin'In Your Sweet Loving Arms
TTITLE1=No Fool Like An Old Fool
TTITLE2=Going Down To The River
TTITLE3=The C.C. Blues
TTITLE4=Amsterdam Calling
TTITLE5=Horses On The Moon
TTITLE6=Has Your Hart Turned To Stone
TTITLE7=Can't Hide From My Love-Swing Low
TTITLE8=Angel Face
TTITLE9=The Carousel
TTITLE10=Never-never Ever
TTITLE11=Blues Fell This Morning
TTITLE12=Who's Fooling Who
TTITLE13=Time Will Pass Like Rain
EXTD=
EXTT0=
EXTT1=
EXTT2=
EXTT3=
EXTT4=
EXTT5=
EXTT6=
EXTT7=
EXTT8=
EXTT9=
EXTT10=
EXTT11=
EXTT12=
EXTT13=
PLAYORDER=
